<?xml version="1.0" encoding="UTF-8"?>
<svg version="1.1" xmlns="http://www.w3.org/2000/svg" width="429" height="522">
<path d="M0 0 C141.57 0 283.14 0 429 0 C429 172.26 429 344.52 429 522 C287.43 522 145.86 522 0 522 C0 349.74 0 177.48 0 0 Z " fill="#E6E990" transform="translate(0,0)"/>
<path d="M0 0 C141.57 0 283.14 0 429 0 C429 172.26 429 344.52 429 522 C287.43 522 145.86 522 0 522 C0 349.74 0 177.48 0 0 Z M144.296875 56.40087891 C140.24562742 61.39629903 136.59417844 66.67102312 133 72 C131.95585937 73.52753906 131.95585937 73.52753906 130.890625 75.0859375 C127.64788167 79.97685203 125.15563113 84.22184435 124 90 C123.34 90 122.68 90 122 90 C121.401875 91.175625 120.80375 92.35125 120.1875 93.5625 C119.85105469 94.22378906 119.51460938 94.88507813 119.16796875 95.56640625 C117.67821242 98.67048048 116.34394624 101.83018739 115 105 C114.51660156 106.12019531 114.03320312 107.24039063 113.53515625 108.39453125 C112.51345377 110.76585664 111.49756881 113.13904671 110.48828125 115.515625 C109.60835537 117.57571393 108.71522133 119.63038385 107.79296875 121.671875 C105.85824338 126.1065264 104.76809841 130.06520055 104.1875 134.875 C103.26860547 142.05440022 100.89390924 148.53427137 98.38745117 155.28466797 C98.08170166 156.11111816 97.77595215 156.93756836 97.4609375 157.7890625 C97.04013916 158.89822021 97.04013916 158.89822021 96.61083984 160.02978516 C95.85193442 162.13378463 95.85193442 162.13378463 96 165 C95.34 165 94.68 165 94 165 C93.63648437 165.92619141 93.63648437 165.92619141 93.265625 166.87109375 C90.64283993 173.49866986 87.82530431 180.01183511 84.859375 186.4921875 C84.49328125 187.29914063 84.1271875 188.10609375 83.75 188.9375 C83.41484375 189.66839844 83.0796875 190.39929688 82.734375 191.15234375 C81.87688088 192.97838739 81.87688088 192.97838739 82 195 C68.6528186 192.87325132 56.45877854 185.6423237 48 175 C44.9724102 170.51292184 42.38329964 165.85569459 40 161 C39.34 161 38.68 161 38 161 C37.6596875 159.8553125 37.6596875 159.8553125 37.3125 158.6875 C33.23469313 147.23080452 27.82789556 133.58267624 19 125 C18.01 125 17.02 125 16 125 C14.47810225 130.05174435 15.43933544 132.74579758 17.75585938 137.21484375 C18.14580078 137.92769531 18.53574219 138.64054687 18.9375 139.375 C19.51661133 140.47908203 19.51661133 140.47908203 20.10742188 141.60546875 C21.05723345 143.41128335 22.02669723 145.20673757 23 147 C23.66 147 24.32 147 25 147 C25.10441406 147.69222656 25.20882813 148.38445312 25.31640625 149.09765625 C28.02263567 160.58753317 35.94083575 170.79890337 43 180 C43.57363281 180.77214844 44.14726563 181.54429687 44.73828125 182.33984375 C52.23436834 191.73320351 63.6509325 198.41513582 75 202 C75.99 202 76.98 202 78 202 C76.59949394 206.68026259 74.61056152 210.80970257 72.25 215.0625 C63.7984149 230.67968405 57.68282743 246.80223165 52.67797852 263.81640625 C52 266 52 266 50.9140625 268.64453125 C39.39061143 298.33957823 48.23664328 334.04133923 60 362 C60.88642504 363.88948496 61.79547813 365.76898525 62.75 367.625 C63.17796875 368.46289062 63.6059375 369.30078125 64.046875 370.1640625 C64.36140625 370.76992188 64.6759375 371.37578125 65 372 C65.66 372 66.32 372 67 372 C67.20625 372.83144531 67.4125 373.66289062 67.625 374.51953125 C69.37949268 378.96059085 71.94461947 382.06212484 75 385.6875 C75.58378418 386.39011963 76.16756836 387.09273926 76.76904297 387.81665039 C78.50057881 389.88838544 80.24697904 391.94643186 82 394 C82.46567383 394.54978516 82.93134766 395.09957031 83.41113281 395.66601562 C89.34626067 402.62568647 95.78585729 408.40473262 103 414 C103.88945313 414.70584229 104.77890625 415.41168457 105.6953125 416.13891602 C112.96670954 421.78424943 120.39260139 426.17307158 128.625 430.3125 C129.77484375 430.90611328 130.9246875 431.49972656 132.109375 432.11132812 C142.56236972 438.16507897 142.56236972 438.16507897 154 441 C153.32496947 445.1952183 152.64949174 449.39036431 151.97363281 453.58544922 C151.74467436 455.00697981 151.5158296 456.42852872 151.28710938 457.85009766 C150.73570863 461.2770049 150.18261534 464.70361773 149.62573242 468.12963867 C149.23096541 470.5714028 148.84227297 473.01416402 148.4621582 475.45825195 C147.63255479 480.69530169 146.7005304 485.6665503 144.9375 490.6875 C144.59589844 491.68136719 144.25429687 492.67523438 143.90234375 493.69921875 C143 496 143 496 142 497 C141.95919217 498.99958364 141.95745644 501.00045254 142 503 C143.32 503.33 144.64 503.66 146 504 C149.30359817 500.30311633 150.51826132 496.13157114 152 491.5 C152.39409058 490.28135254 152.39409058 490.28135254 152.79614258 489.03808594 C153.5443585 486.69604691 154.27639261 484.34974478 155 482 C155.31324219 480.98421875 155.62648437 479.9684375 155.94921875 478.921875 C159.00255879 467.87169201 161 455.47733731 161 444 C161.72960937 444.25394531 162.45921875 444.50789063 163.2109375 444.76953125 C170.44835832 447.15519959 177.4998736 448.7561962 185.02685547 449.87231445 C186.07897217 450.03026489 186.07897217 450.03026489 187.15234375 450.19140625 C187.91345459 450.30532715 188.67456543 450.41924805 189.45874023 450.53662109 C192 451 192 451 194.85571289 451.74853516 C205.38375185 454.43313349 215.61280073 454.38952571 226.42260742 454.28125 C229.55985504 454.25002632 232.69659637 454.24025531 235.83398438 454.234375 C245.92921145 454.19480116 255.95045501 454.0446765 266 453 C266.04576172 453.64428955 266.09152344 454.2885791 266.13867188 454.95239258 C266.92234172 465.31070279 269.51258708 474.66328603 274 484 C274.495 485.175625 274.99 486.35125 275.5 487.5625 C276.92234868 490.82204906 278.47958128 493.95920314 280.1328125 497.10546875 C281.02363165 499.0516277 281.54639766 500.91250351 282 503 C284.39719432 503.67958603 284.39719432 503.67958603 287 504 C289.28728734 502.16116119 289.28728734 502.16116119 289.125 499.375 C289.063125 498.199375 289.063125 498.199375 289 497 C288.34 497 287.68 497 287 497 C286.73316406 496.17886719 286.46632813 495.35773438 286.19140625 494.51171875 C284.85677205 490.57782974 283.40887068 486.69677539 281.9375 482.8125 C279.11993243 475.3597973 279.11993243 475.3597973 278 472 C277.34 472 276.68 472 276 472 C275.01 465.07 274.02 458.14 273 451 C276.3 450.67 279.6 450.34 283 450 C284.93327164 449.63893376 286.85986932 449.23583705 288.76953125 448.765625 C289.75373047 448.52408691 290.73792969 448.28254883 291.75195312 448.03369141 C292.76193359 447.77507324 293.77191406 447.51645508 294.8125 447.25 C295.87275391 446.97978027 296.93300781 446.70956055 298.02539062 446.43115234 C335.27213465 436.7193325 367.82525218 414.02884389 387.5625 380.8125 C389.15170369 378.22961672 389.15170369 378.22961672 389 376 C389.66 376 390.32 376 391 376 C391.68016752 374.42487523 392.35610755 372.84787495 393.01953125 371.265625 C393.68917033 369.71825183 394.39696167 368.18697885 395.13671875 366.671875 C402.35085759 351.10572054 405.14862618 332.71945238 405.3125 315.6875 C405.35600586 314.24407227 405.35600586 314.24407227 405.40039062 312.77148438 C405.5351709 296.79483766 400.15606262 281.65106234 394.9375 266.75 C391.60765863 257.21652157 388.57759316 247.92036697 386.62426758 237.99755859 C385.82728333 234.17066279 384.66154737 230.62744415 383.375 226.9375 C381.31210385 220.76850145 380.36776732 215.01501656 380.140625 208.4765625 C380.16376192 205.99770018 380.16376192 205.99770018 379 204 C376.89613826 189.36647282 376.89613826 189.36647282 379.16796875 184.49609375 C380.68331995 182.82359502 382.25612627 181.42720014 384 180 C386.33381123 176.75211737 386.33381123 176.75211737 387 173 C387.66 173 388.32 173 389 173 C389 171.68 389 170.36 389 169 C389.66 169 390.32 169 391 169 C391.43570312 167.96101562 391.87140625 166.92203125 392.3203125 165.8515625 C397.70998539 153.17517365 397.70998539 153.17517365 401.25 147.625 C404.19410577 142.99629895 405.71251591 138.30804844 407 133 C407.66 133 408.32 133 409 133 C409 132.34 409 131.68 409 131 C409.66 131 410.32 131 411 131 C413.03435531 127.27034861 414 125.33094958 414 121 C411.69 120.67 409.38 120.34 407 120 C405.55387606 122.32835049 404.11814894 124.66216437 402.6875 127 C402.08131836 127.97259766 402.08131836 127.97259766 401.46289062 128.96484375 C399.06074948 132.90982352 397.24982344 136.74944276 395.7175293 141.10253906 C394.61444973 144.01956337 393.09530155 146.66443333 391.5625 149.375 C387.93133152 155.98480139 384.7062183 162.623115 383 170 C382.34 170 381.68 170 381 170 C380.566875 171.134375 380.13375 172.26875 379.6875 173.4375 C379.130625 174.613125 378.57375 175.78875 378 177 C377.01 177.33 376.02 177.66 375 178 C374.78923828 176.24816406 374.78923828 176.24816406 374.57421875 174.4609375 C371.84852976 152.79813179 364.75095627 133.12112086 354.86938477 113.71484375 C353.13624788 110.30834745 351.50119381 106.91893842 350.0625 103.375 C347.20587126 96.80101159 342.99258489 90.92315251 339 85 C338.61569824 84.42056641 338.23139648 83.84113281 337.83544922 83.24414062 C316.41451606 51.09912011 282.87826015 24.35341077 244.47949219 16.52734375 C204.58119075 9.32712466 169.94474827 25.99231229 144.296875 56.40087891 Z " fill="#FEFEFE" transform="translate(0,0)"/>
<path d="M0 0 C25.71148079 19.18092896 43.0831201 50.94150261 47.9375 82.625 C48.3726771 85.44199462 48.80762502 88.2403036 49.4387207 91.02075195 C50.89808679 97.54219285 51.20897931 103.70527446 51.125 110.375 C51.1240332 111.83969727 51.1240332 111.83969727 51.12304688 113.33398438 C51.06886043 122.33495519 50.68073117 130.50720585 46.9375 138.8125 C46.525 139.7303125 46.1125 140.648125 45.6875 141.59375 C42.19021262 148.96846469 37.9829583 155.40903034 32.9375 161.8125 C32.12345703 162.87597656 32.12345703 162.87597656 31.29296875 163.9609375 C18.75119991 179.40165535 -2.50987001 189.59061023 -22.0625 191.8125 C-22.3925 192.1425 -22.7225 192.4725 -23.0625 192.8125 C-46.99278517 194.35720624 -66.29177582 187.73783277 -85.0625 172.8125 C-86.609375 171.6678125 -86.609375 171.6678125 -88.1875 170.5 C-94.90590508 164.21975178 -100.55145154 156.81597307 -105.0625 148.8125 C-105.0625 148.1525 -105.0625 147.4925 -105.0625 146.8125 C-105.7225 146.8125 -106.3825 146.8125 -107.0625 146.8125 C-109.62800682 141.39643006 -111.8160076 135.92167525 -113.75 130.25 C-114.16636719 129.03183594 -114.58273438 127.81367188 -115.01171875 126.55859375 C-117.2884393 118.44195804 -117.24517538 110.43803855 -117.25 102.0625 C-117.26224609 100.9590625 -117.27449219 99.855625 -117.28710938 98.71875 C-117.32656808 76.30620638 -109.8165047 53.79427991 -98.0625 34.8125 C-97.70043457 34.22581543 -97.33836914 33.63913086 -96.96533203 33.03466797 C-91.56229038 24.45050967 -85.15320349 17.00935175 -78.0625 9.8125 C-77.40765625 9.14476562 -76.7528125 8.47703125 -76.078125 7.7890625 C-67.5234926 -0.29031254 -56.24696467 -5.8321606 -45.0625 -9.1875 C-44.46179688 -9.38085938 -43.86109375 -9.57421875 -43.2421875 -9.7734375 C-28.12725848 -12.64473226 -12.60656409 -8.49790648 0 0 Z " fill="#E18A51" transform="translate(235.0625,213.1875)"/>
<path d="M0 0 C0.91620117 0.00563965 1.83240234 0.0112793 2.77636719 0.01708984 C32.28626567 0.53221251 61.15382902 12.68742681 83.125 32.3125 C83.66189453 32.78606934 84.19878906 33.25963867 84.75195312 33.74755859 C88.27567717 36.86914131 91.71291871 40.0694858 95.125 43.3125 C96.07246094 44.18068359 96.07246094 44.18068359 97.0390625 45.06640625 C107.45465543 54.91432469 115.39578599 67.3406196 123.125 79.3125 C123.6509375 80.09496094 124.176875 80.87742187 124.71875 81.68359375 C127.40658542 85.75631997 129.19460585 89.83741595 130.91015625 94.3984375 C132.07583763 97.19457355 133.42816478 99.83278505 134.85180664 102.50463867 C140.31584343 112.82646623 143.81927019 123.66985629 147.29052734 134.7956543 C147.85955496 136.51189353 148.49134398 138.20827232 149.17578125 139.88183594 C150.03584304 142.08419582 150.57180362 144.0581943 150.9765625 146.37890625 C151.10546875 147.11173828 151.234375 147.84457031 151.3671875 148.59960938 C151.55667969 149.72592773 151.55667969 149.72592773 151.75 150.875 C151.8840625 151.62974609 152.018125 152.38449219 152.15625 153.16210938 C152.75229989 156.61372478 153.125 159.79952728 153.125 163.3125 C154.115 162.9825 155.105 162.6525 156.125 162.3125 C157.84067661 158.80955129 157.84067661 158.80955129 159.125 155.3125 C159.785 155.3125 160.445 155.3125 161.125 155.3125 C161.38667969 154.48363281 161.64835937 153.65476563 161.91796875 152.80078125 C163.25245956 148.94414599 164.79751172 145.23439369 166.4375 141.5 C166.74655273 140.79367432 167.05560547 140.08734863 167.37402344 139.35961914 C169.38726765 134.81938835 171.58396441 130.46558366 174.0859375 126.171875 C175.31372534 123.97478098 176.22383291 121.68153515 177.16796875 119.3515625 C179.45186548 114.48546416 182.36400457 109.91920196 185.125 105.3125 C187.435 105.6425 189.745 105.9725 192.125 106.3125 C191.61787967 110.03138239 191.00891785 113.04704239 189.125 116.3125 C188.465 116.3125 187.805 116.3125 187.125 116.3125 C187.125 116.9725 187.125 117.6325 187.125 118.3125 C186.465 118.3125 185.805 118.3125 185.125 118.3125 C185.01285156 118.84875 184.90070313 119.385 184.78515625 119.9375 C183.06512872 126.77264207 179.99404029 132.35896175 176.47509766 138.390625 C173.49935208 143.52620567 171.05833769 148.68824489 169.125 154.3125 C168.465 154.3125 167.805 154.3125 167.125 154.3125 C167.125 155.6325 167.125 156.9525 167.125 158.3125 C166.465 158.3125 165.805 158.3125 165.125 158.3125 C164.815625 159.3025 164.815625 159.3025 164.5 160.3125 C162.48712474 164.70422784 159.55711667 168.88038333 156.125 172.3125 C156.18985257 175.13948235 156.31676086 177.93040777 156.5 180.75 C156.54382813 181.53955078 156.58765625 182.32910156 156.6328125 183.14257812 C156.80272007 187.36260811 156.80272007 187.36260811 158.125 191.3125 C158.28099823 193.35203238 158.40045386 195.39443408 158.5 197.4375 C158.83262722 202.23683564 159.48494479 206.11070452 161.37109375 210.51171875 C163.0594239 214.54446591 163.85594662 218.89819254 164.67016602 223.17822266 C166.77580551 233.92517752 170.24835754 244.02700914 173.86108398 254.34277344 C178.985496 269.03622446 183.94181801 284.08172338 183.6875 299.8125 C183.67650269 301.28976562 183.67650269 301.28976562 183.6652832 302.796875 C183.2914239 317.4475584 180.66087425 332.70789945 175.125 346.3125 C174.8465625 347.06660156 174.568125 347.82070313 174.28125 348.59765625 C172.69309059 352.89892132 170.9628332 357.11173841 169.125 361.3125 C168.465 361.3125 167.805 361.3125 167.125 361.3125 C166.86847656 362.18390625 166.61195313 363.0553125 166.34765625 363.953125 C163.16377247 372.70117629 156.79507348 380.04988858 150.49609375 386.765625 C149.15704352 388.20394584 147.83377413 389.65863623 146.56860352 391.16235352 C142.49711345 395.9887837 138.23397126 399.96323077 133.1875 403.75 C132.4545874 404.30494141 131.7216748 404.85988281 130.96655273 405.43164062 C123.73390481 410.79317502 116.10367494 415.17305063 108.125 419.3125 C107.21234375 419.80234375 106.2996875 420.2921875 105.359375 420.796875 C94.95717085 426.23286556 84.27422598 429.68463587 72.9375 432.5625 C71.92800293 432.82087646 70.91850586 433.07925293 69.87841797 433.34545898 C68.89373535 433.58723877 67.90905273 433.82901855 66.89453125 434.078125 C66.02417236 434.29243164 65.15381348 434.50673828 64.25708008 434.72753906 C59.92289511 435.53701035 55.5122456 435.87377544 51.125 436.3125 C52.115 443.2425 53.105 450.1725 54.125 457.3125 C54.785 457.3125 55.445 457.3125 56.125 457.3125 C56.52332031 458.47007812 56.92164063 459.62765625 57.33203125 460.8203125 C57.86697499 462.35944888 58.40214315 463.89850727 58.9375 465.4375 C59.32905273 466.57832031 59.32905273 466.57832031 59.72851562 467.7421875 C61.25574061 472.11646154 63.02935159 476.17154909 65.125 480.3125 C65.125 480.9725 65.125 481.6325 65.125 482.3125 C65.785 482.3125 66.445 482.3125 67.125 482.3125 C67.25 484.6875 67.25 484.6875 67.125 487.3125 C66.465 487.9725 65.805 488.6325 65.125 489.3125 C62.6328125 489.234375 62.6328125 489.234375 60.125 488.3125 C58.8671875 486.203125 58.8671875 486.203125 58 483.5625 C57.05555437 480.77095274 56.16287383 478.37506122 54.6328125 475.84765625 C53.00673729 473.11365933 52.07829772 470.53069233 51.125 467.5 C50.003212 463.99762372 48.85868025 460.54228668 47.5 457.125 C45.1175081 450.86282183 44.07641322 445.0037574 44.125 438.3125 C43.45122314 438.38033691 42.77744629 438.44817383 42.08325195 438.51806641 C30.84046291 439.52277584 19.59405652 439.63904569 8.3125 439.6875 C7.2675235 439.69239441 6.222547 439.69728882 5.14590454 439.70233154 C-9.60740702 439.73093284 -23.32593043 439.07606418 -37.58105469 434.93994141 C-40.88746659 434.03556948 -44.23688878 433.41569039 -47.60131836 432.76806641 C-50.43911869 432.19947031 -53.21503891 431.47300185 -56 430.6875 C-57.39605469 430.29691406 -57.39605469 430.29691406 -58.8203125 429.8984375 C-59.49835938 429.70507812 -60.17640625 429.51171875 -60.875 429.3125 C-60.98457031 430.42625 -61.09414062 431.54 -61.20703125 432.6875 C-65.38777163 473.62259801 -65.38777163 473.62259801 -74.875 488.3125 C-76.93359375 489.0625 -76.93359375 489.0625 -78.875 489.3125 C-79.875 488.3125 -79.875 488.3125 -80.1875 485.875 C-79.82588903 481.75263489 -78.57733366 478.64678223 -76.9453125 474.875 C-74.66236635 469.40926032 -73.40255614 464.10388201 -72.62109375 458.24609375 C-72.51531509 457.48958023 -72.40953644 456.73306671 -72.30055237 455.95362854 C-71.96585566 453.55312373 -71.63884692 451.15165286 -71.3125 448.75 C-70.98111706 446.3450034 -70.64811976 443.94024095 -70.31373596 441.53565979 C-70.10686328 440.04452084 -69.90195922 438.55310702 -69.69932556 437.06138611 C-69.20308108 433.44993438 -68.63971923 429.87728148 -67.875 426.3125 C-69.12925781 425.92320312 -70.38351563 425.53390625 -71.67578125 425.1328125 C-91.24383811 418.59355566 -109.37671268 407.8232548 -124.875 394.3125 C-125.85210937 393.48105469 -126.82921875 392.64960938 -127.8359375 391.79296875 C-135.08010409 385.49922002 -140.98855075 378.55938426 -146.70898438 370.87060547 C-147.7393452 369.49377071 -148.79737808 368.13773894 -149.859375 366.78515625 C-150.40078125 366.09292969 -150.9421875 365.40070313 -151.5 364.6875 C-152.16902344 363.83285156 -152.16902344 363.83285156 -152.8515625 362.9609375 C-154.0027502 361.10673441 -154.45618644 359.44379566 -154.875 357.3125 C-155.535 357.3125 -156.195 357.3125 -156.875 357.3125 C-162.75070667 348.12229213 -165.82347607 338.15367913 -169.07250977 327.81958008 C-169.84758185 325.39815773 -170.67403619 322.99936913 -171.5078125 320.59765625 C-179.4508831 296.76058263 -176.23791914 266.57642762 -167.875 243.3125 C-167.6370874 242.64903564 -167.3991748 241.98557129 -167.15405273 241.30200195 C-162.69962162 229.06804423 -157.77503338 217.10360783 -152.25 205.3125 C-151.86545654 204.48645264 -151.48091309 203.66040527 -151.0847168 202.80932617 C-150.71386963 202.02662354 -150.34302246 201.2439209 -149.9609375 200.4375 C-149.6314209 199.73882812 -149.3019043 199.04015625 -148.96240234 198.3203125 C-147.875 196.3125 -147.875 196.3125 -146.28759766 194.2265625 C-144.60789116 191.9505689 -144.26023785 190.08621251 -143.875 187.3125 C-144.5865625 187.18746094 -145.298125 187.06242188 -146.03125 186.93359375 C-165.07551262 182.77420123 -177.43648189 168.89054676 -187.625 153.25 C-196.875 138.66521786 -196.875 138.66521786 -196.875 132.3125 C-197.535 132.3125 -198.195 132.3125 -198.875 132.3125 C-199.83689997 130.58531484 -200.79436508 128.85565942 -201.75 127.125 C-202.28367188 126.16207031 -202.81734375 125.19914062 -203.3671875 124.20703125 C-206.08453732 118.99056437 -207.2364963 116.16693411 -205.875 110.3125 C-203.05701966 110.6578105 -202.04345992 111.12255861 -200.12890625 113.28125 C-193.08981703 123.81549899 -187.70026171 134.19917124 -183.875 146.3125 C-183.215 146.3125 -182.555 146.3125 -181.875 146.3125 C-181.54628906 146.99054688 -181.21757812 147.66859375 -180.87890625 148.3671875 C-173.78724247 162.24301744 -162.96383229 173.26020346 -148.11328125 178.63671875 C-145.38843829 179.45940257 -142.70592582 180.01450781 -139.875 180.3125 C-139.69324219 179.72082031 -139.51148438 179.12914062 -139.32421875 178.51953125 C-139.07285156 177.72933594 -138.82148438 176.93914062 -138.5625 176.125 C-138.31886719 175.34769531 -138.07523437 174.57039062 -137.82421875 173.76953125 C-136.875 171.3125 -136.875 171.3125 -135.46875 169.03125 C-133.40028143 165.50268597 -132.07616776 161.83683759 -130.6875 158 C-130.41486328 157.25943359 -130.14222656 156.51886719 -129.86132812 155.75585938 C-129.19468797 153.94306598 -128.53421459 152.12800684 -127.875 150.3125 C-127.215 150.3125 -126.555 150.3125 -125.875 150.3125 C-125.648125 149.11625 -125.42125 147.92 -125.1875 146.6875 C-124.27097857 142.48073256 -122.900765 138.58619886 -121.375 134.5625 C-119.64011505 129.86870048 -118.46182329 125.52309595 -117.8125 120.5625 C-117.02220926 114.59221268 -115.35189792 109.7724112 -112.875 104.3125 C-112.33768492 103.07385092 -111.80270682 101.83418656 -111.26953125 100.59375 C-107.60790069 92.10290847 -103.79082519 83.68921031 -99.875 75.3125 C-99.215 75.3125 -98.555 75.3125 -97.875 75.3125 C-97.72659668 74.76867676 -97.57819336 74.22485352 -97.42529297 73.66455078 C-95.55236059 67.40850147 -92.74878273 62.5031286 -89 57.1875 C-88.14160522 55.95580078 -88.14160522 55.95580078 -87.26586914 54.69921875 C-69.75265415 29.98482265 -47.77766554 10.01701332 -17.875 2.3125 C-16.63492188 1.95542969 -15.39484375 1.59835938 -14.1171875 1.23046875 C-9.40998456 0.06984972 -4.83042062 -0.03150666 0 0 Z M-36.875 14.3125 C-37.535 14.6425 -38.195 14.9725 -38.875 15.3125 C-38.875 15.9725 -38.875 16.6325 -38.875 17.3125 C-39.803125 17.456875 -40.73125 17.60125 -41.6875 17.75 C-47.77410485 19.49253607 -52.22588097 24.22127525 -56.875 28.3125 C-58.16857422 29.42238281 -58.16857422 29.42238281 -59.48828125 30.5546875 C-67.39753947 37.46760059 -75.06611657 44.59767909 -79.609375 54.20703125 C-80.875 56.3125 -80.875 56.3125 -83.140625 58.4453125 C-86.85495002 62.34004759 -89.25748962 66.6967733 -91.875 71.375 C-92.40681885 72.31585449 -92.9386377 73.25670898 -93.48657227 74.22607422 C-96.67076766 79.93508905 -99.52535082 85.5813777 -101.8671875 91.6875 C-102.9460543 94.49757166 -104.17095996 97.20723405 -105.4375 99.9375 C-106.25118436 101.7286291 -107.06372753 103.52027717 -107.875 105.3125 C-108.43574219 106.52679688 -108.43574219 106.52679688 -109.0078125 107.765625 C-110.96821176 112.26728257 -112.1023551 116.30714254 -112.6875 121.1875 C-114.40143595 134.00410066 -119.58818366 146.50089646 -125.61328125 157.87109375 C-126.68515277 159.94514855 -127.54268755 161.92753537 -128.3125 164.125 C-129.96058494 168.82253553 -132.14250532 173.27930669 -134.27514648 177.77075195 C-137.07794831 183.68156511 -139.62242716 189.68064915 -142.0625 195.75 C-144.44750614 201.50292391 -147.18027617 207.03347294 -149.99389648 212.58398438 C-152.12005248 216.78264901 -154.15518501 220.9956055 -156.015625 225.3203125 C-156.61029508 226.69886587 -157.22640304 228.06829543 -157.859375 229.4296875 C-170.63358299 257.04162938 -175.68731028 294.87556917 -165.875 324.3125 C-165.215 324.3125 -164.555 324.3125 -163.875 324.3125 C-163.77268066 324.86067383 -163.67036133 325.40884766 -163.56494141 325.97363281 C-162.41054751 331.68356425 -160.66475497 336.77040448 -158.25 342.0625 C-157.89373535 342.84616943 -157.5374707 343.62983887 -157.17041016 344.43725586 C-150.69183743 358.39516806 -141.92585546 369.76885144 -131.875 381.3125 C-131.13765625 382.16714844 -130.4003125 383.02179688 -129.640625 383.90234375 C-118.21660375 396.17174257 -102.02357037 407.43922897 -86.3359375 413.328125 C-83.94610263 414.28405895 -81.76281805 415.40228428 -79.5 416.625 C-67.6361564 422.7177554 -53.43165244 427.50314243 -40.25 429.375 C-34.13282099 430.25407204 -34.13282099 430.25407204 -31.60620117 430.82666016 C-14.13466468 433.93458521 6.20117759 431.98768803 23.125 427.3125 C24.33639648 426.99901611 24.33639648 426.99901611 25.57226562 426.67919922 C55.2038944 418.97104949 81.91276784 404.33091513 104.125 383.3125 C105.37410156 382.14267578 105.37410156 382.14267578 106.6484375 380.94921875 C113.86980373 373.98337779 121.75573061 365.94650467 125.125 356.3125 C125.785 356.3125 126.445 356.3125 127.125 356.3125 C129.63626718 351.37656106 132.03786076 346.44418179 134.125 341.3125 C134.52976562 340.3534375 134.93453125 339.394375 135.3515625 338.40625 C136.01285156 336.78203125 136.01285156 336.78203125 136.6875 335.125 C137.10128906 334.12082031 137.51507813 333.11664063 137.94140625 332.08203125 C145.16826768 309.06578941 141.36081603 286.50345816 132.625 264.7253418 C130.70196711 259.92034987 129.17562968 255.17833933 127.9375 250.1484375 C126.87524605 246.44076265 125.46705587 242.90178135 124.0625 239.3125 C121.62673651 233.05841263 119.94723664 227.0038051 119.125 220.3125 C118.465 220.3125 117.805 220.3125 117.125 220.3125 C117.00125 219.36375 116.8775 218.415 116.75 217.4375 C115.84500379 211.13329799 114.5431954 204.89916228 113.01171875 198.71875 C108.1388071 178.95920487 105.60421062 158.79500829 102.9921875 138.63671875 C102.90205887 137.94510651 102.81193024 137.25349426 102.71907043 136.54092407 C102.29191744 133.25885203 101.8730219 129.97638814 101.46850586 126.69140625 C101.32034424 125.52867187 101.17218262 124.3659375 101.01953125 123.16796875 C100.89425049 122.15371826 100.76896973 121.13946777 100.63989258 120.09448242 C100.11975368 117.28415394 99.1834435 114.95687447 98.125 112.3125 C97.84277344 110.05419922 97.84277344 110.05419922 97.734375 107.7421875 C97.21488942 101.64161992 95.3831611 96.19367907 93.375 90.4375 C93.01519043 89.38336914 92.65538086 88.32923828 92.28466797 87.24316406 C89.83681452 80.14866814 87.28639902 73.12543741 84.125 66.3125 C83.62613281 65.20648438 83.62613281 65.20648438 83.1171875 64.078125 C82.24434186 62.13856368 82.24434186 62.13856368 80.125 61.3125 C79.40778438 59.63132985 78.69412856 57.94848996 78.00439453 56.25585938 C76.57708168 53.10166441 74.59483488 50.34636301 72.5625 47.5625 C72.12341309 46.95833252 71.68432617 46.35416504 71.23193359 45.73168945 C63.72245711 35.56589976 55.52450936 27.5218896 45.125 20.3125 C44.29484375 19.72339844 43.4646875 19.13429688 42.609375 18.52734375 C38.27231197 15.52532903 34.08135424 13.19249644 29.125 11.3125 C27.80435547 10.80203125 27.80435547 10.80203125 26.45703125 10.28125 C6.13020085 2.60039641 -17.58397844 4.50584704 -36.875 14.3125 Z " fill="#4B4B49" transform="translate(221.875,14.6875)"/>
<path d="M0 0 C0.99 0.33 1.98 0.66 3 1 C4.03123046 7.20740668 5.00958326 13.33502306 5.3125 19.625 C5.89672721 27.53293253 8.23510348 35.01349473 10.35351562 42.61914062 C11.15138463 45.55751619 11.86770306 48.51151287 12.57641602 51.47241211 C13.99388732 57.38506865 15.66861842 63.06143979 17.859375 68.73828125 C19.80293644 74.29606823 21.32367602 79.98031253 22.89404297 85.65307617 C24.07250268 89.88283524 25.34154677 93.93057952 27 98 C29.04046334 106.20186244 29.58172658 114.58589514 30 123 C30.06574219 123.85722656 30.13148438 124.71445312 30.19921875 125.59765625 C31.03888222 143.86757526 24.27137215 162.57758128 17 179 C16.68289063 179.7321875 16.36578125 180.464375 16.0390625 181.21875 C15 183 15 183 12 185 C11.27617533 187.05925139 11.27617533 187.05925139 11 189 C10.34 189 9.68 189 9 189 C7.92165016 191.0796747 6.96803163 193.09111759 6.19140625 195.3046875 C4.79231746 198.46983918 3.01222189 200.76830218 0.8125 203.4375 C0.07644531 204.34371094 -0.65960938 205.24992188 -1.41796875 206.18359375 C-6.83621545 212.09366314 -13.26547918 216.83920806 -19.625 221.6875 C-20.36234375 222.25533203 -21.0996875 222.82316406 -21.859375 223.40820312 C-31.79190174 231 -31.79190174 231 -35 231 C-35.33 231.99 -35.66 232.98 -36 234 C-37.69897461 235.01147461 -37.69897461 235.01147461 -39.90234375 235.90234375 C-40.70510742 236.23322998 -41.50787109 236.56411621 -42.33496094 236.9050293 C-43.19379883 237.24574463 -44.05263672 237.58645996 -44.9375 237.9375 C-45.81051758 238.29303955 -46.68353516 238.6485791 -47.58300781 239.01489258 C-49.30131264 239.71321448 -51.02148274 240.40696748 -52.74365234 241.09570312 C-54.48717262 241.79446953 -56.22365936 242.510801 -57.95703125 243.234375 C-67.59366269 247.24006166 -77.63098929 251.36627755 -88.14453125 251.859375 C-90.09422204 251.88946919 -90.09422204 251.88946919 -92 253 C-93.54023996 253.06950541 -95.08334988 253.08452357 -96.625 253.0625 C-97.44226563 253.05347656 -98.25953125 253.04445313 -99.1015625 253.03515625 C-100.04128906 253.01775391 -100.04128906 253.01775391 -101 253 C-101.33 250.69 -101.66 248.38 -102 246 C-98.88857312 244.40634233 -95.78893764 242.91173756 -92.5625 241.5625 C-89.98319682 240.43122668 -87.81158269 239.3235042 -85.4375 237.875 C-82.12622617 236.06885064 -79.71864332 235.36279447 -76 235 C-76 234.34 -76 233.68 -76 233 C-73.56925718 231.37749424 -71.13606331 229.86358605 -68.625 228.375 C-58.09982134 221.96248458 -49.03172666 214.37236461 -40 206 C-39.39542969 205.46117187 -38.79085937 204.92234375 -38.16796875 204.3671875 C-32.12650635 198.73603519 -27.61879829 191.79609402 -23 185 C-22.03513672 183.58460938 -22.03513672 183.58460938 -21.05078125 182.140625 C-14.71276405 172.51253595 -8.74480129 162.6068475 -7.2890625 151.01171875 C-7 149 -7 149 -6 148 C-3.43446393 133.96873484 -3.62915515 117.6327587 -7.34375 103.875 C-8.0390215 100.82904867 -8.11120094 98.11362641 -8 95 C-8.66 95 -9.32 95 -10 95 C-10.52473958 93.42578125 -11.04947917 91.8515625 -11.57421875 90.27734375 C-11.90945557 89.2721167 -12.24469238 88.26688965 -12.59008789 87.23120117 C-13.32872455 85.01430524 -14.06617016 82.79701214 -14.80249023 80.5793457 C-17.05589097 73.78226137 -17.05589097 73.78226137 -19.3984375 67.015625 C-22.72928127 57.49254148 -25.20896649 47.79041434 -27.67797852 38.01245117 C-27.96471436 36.87783447 -28.2514502 35.74321777 -28.546875 34.57421875 C-28.80307617 33.54901123 -29.05927734 32.52380371 -29.32324219 31.4675293 C-29.90786181 29.02201582 -29.90786181 29.02201582 -31 27 C-31.13415472 24.3276379 -31.04318541 21.67749512 -31 19 C-30.34 19 -29.68 19 -29 19 C-29 18.34 -29 17.68 -29 17 C-28.24976563 16.70867187 -27.49953125 16.41734375 -26.7265625 16.1171875 C-18.06000026 12.64619658 -10.03502809 8.86403166 -3.0625 2.5625 C-2.051875 1.716875 -1.04125 0.87125 0 0 Z " fill="#3B5917" transform="translate(371,193)"/>
<path d="M0 0 C4.9344234 1.38615863 8.87238535 3.62550777 13.0625 6.5 C13.71661865 6.94432373 14.3707373 7.38864746 15.04467773 7.84643555 C48.68612057 30.92124976 48.68612057 30.92124976 55 44 C55.99 44.66 56.98 45.32 58 46 C58.680625 47.3921875 58.680625 47.3921875 59.375 48.8125 C60.8216713 52.06826859 60.8216713 52.06826859 63.3359375 54.2890625 C66.18287001 57.18608767 68.14470798 60.09519654 70.25 63.5625 C70.93578125 64.67753906 71.6215625 65.79257813 72.328125 66.94140625 C73.69871301 69.44881376 74.41310982 71.2674898 75 74 C75.515625 74.495 76.03125 74.99 76.5625 75.5 C78 77 78 77 78 81 C78.66 81 79.32 81 80 81 C82.01117057 85.32824733 84.00933508 89.66228514 86 94 C86.32871094 94.70640625 86.65742188 95.4128125 86.99609375 96.140625 C88.58663273 99.66783061 89.54137465 103.15954805 90.41015625 106.921875 C91.03599886 109.12683043 91.89052104 111.05644498 92.875 113.125 C95.68715801 119.17953423 97.27182416 125.57118587 99 132 C99.21785156 132.69738281 99.43570313 133.39476562 99.66015625 134.11328125 C100.246219 136.07116497 100.64010209 137.98660886 101 140 C101.23976563 141.22847656 101.47953125 142.45695313 101.7265625 143.72265625 C102.39367178 148.02551109 102.6377868 151.66217608 102 156 C98.92668317 160.02014677 95.45162805 162.62579837 91 165 C90.34 165 89.68 165 89 165 C89 165.66 89 166.32 89 167 C86.63052694 168.32340798 84.25524144 169.63371607 81.875 170.9375 C81.20984375 171.31068359 80.5446875 171.68386719 79.859375 172.06835938 C79.20195312 172.42607422 78.54453125 172.78378906 77.8671875 173.15234375 C76.97169189 173.6472229 76.97169189 173.6472229 76.05810547 174.15209961 C73.41814861 175.23971173 70.81843605 175.60709535 68 176 C65.41402475 166.48840627 63.65348659 156.90194696 62.0625 147.1875 C61.93338226 146.40941986 61.80426453 145.63133972 61.67123413 144.8296814 C59.61263106 132.40069329 57.87616175 119.95400053 56.3371582 107.45068359 C55.32118728 99.24605533 54.0869849 91.13543798 52.515625 83.01953125 C52 80 52 80 52 76 C51.34 76 50.68 76 50 76 C49.79955078 75.41210693 49.59910156 74.82421387 49.39257812 74.21850586 C44.46270178 59.88860736 38.83523173 46.98345316 31 34 C30.54625 33.21625 30.0925 32.4325 29.625 31.625 C26.23059413 26.14172898 22.6312973 21.51551486 18 17 C17.26394531 16.05769531 16.52789062 15.11539063 15.76953125 14.14453125 C13.00215425 10.78927917 9.82750018 8.57927548 6.1875 6.25 C4.07018435 4.88413726 2.03593886 3.49043841 0 2 C0 1.34 0 0.68 0 0 Z " fill="#3B5917" transform="translate(269,30)"/>
<path d="M0 0 C25.71148079 19.18092896 43.0831201 50.94150261 47.9375 82.625 C48.3726771 85.44199462 48.80762502 88.2403036 49.4387207 91.02075195 C50.89808679 97.54219285 51.20897931 103.70527446 51.125 110.375 C51.1240332 111.83969727 51.1240332 111.83969727 51.12304688 113.33398438 C51.06886043 122.33495519 50.68073117 130.50720585 46.9375 138.8125 C46.525 139.7303125 46.1125 140.648125 45.6875 141.59375 C42.19021262 148.96846469 37.9829583 155.40903034 32.9375 161.8125 C32.12345703 162.87597656 32.12345703 162.87597656 31.29296875 163.9609375 C18.75119991 179.40165535 -2.50987001 189.59061023 -22.0625 191.8125 C-22.3925 192.1425 -22.7225 192.4725 -23.0625 192.8125 C-46.99278517 194.35720624 -66.29177582 187.73783277 -85.0625 172.8125 C-86.609375 171.6678125 -86.609375 171.6678125 -88.1875 170.5 C-94.90590508 164.21975178 -100.55145154 156.81597307 -105.0625 148.8125 C-105.0625 148.1525 -105.0625 147.4925 -105.0625 146.8125 C-105.7225 146.8125 -106.3825 146.8125 -107.0625 146.8125 C-109.62800682 141.39643006 -111.8160076 135.92167525 -113.75 130.25 C-114.16636719 129.03183594 -114.58273438 127.81367188 -115.01171875 126.55859375 C-117.2884393 118.44195804 -117.24517538 110.43803855 -117.25 102.0625 C-117.26224609 100.9590625 -117.27449219 99.855625 -117.28710938 98.71875 C-117.32656808 76.30620638 -109.8165047 53.79427991 -98.0625 34.8125 C-97.70043457 34.22581543 -97.33836914 33.63913086 -96.96533203 33.03466797 C-91.56229038 24.45050967 -85.15320349 17.00935175 -78.0625 9.8125 C-77.40765625 9.14476562 -76.7528125 8.47703125 -76.078125 7.7890625 C-67.5234926 -0.29031254 -56.24696467 -5.8321606 -45.0625 -9.1875 C-44.46179688 -9.38085938 -43.86109375 -9.57421875 -43.2421875 -9.7734375 C-28.12725848 -12.64473226 -12.60656409 -8.49790648 0 0 Z M-78.0625 16.8125 C-78.84367187 17.57046875 -79.62484375 18.3284375 -80.4296875 19.109375 C-91.65293492 30.69208586 -102.64654373 48.33450073 -105.5 64.35546875 C-106.53942029 68.89571433 -108.31054823 73.22271782 -109.94140625 77.578125 C-117.17422443 98.44493145 -112.21440893 124.34593962 -103.0625 143.8125 C-102.4025 143.8125 -101.7425 143.8125 -101.0625 143.8125 C-100.85625 144.64007813 -100.65 145.46765625 -100.4375 146.3203125 C-98.67511519 150.79636937 -96.11265646 154.00702721 -93.0625 157.6875 C-92.47799072 158.39640381 -91.89348145 159.10530762 -91.29125977 159.83569336 C-80.53203641 172.60538216 -66.8239034 180.55869887 -51.0625 185.8125 C-50.340625 186.06 -49.61875 186.3075 -48.875 186.5625 C-30.55331072 191.71547511 -10.39188997 186.39328448 5.9375 177.8125 C10.12171292 175.36449497 14.05640739 172.71457825 17.9375 169.8125 C18.65164062 169.29429687 19.36578125 168.77609375 20.1015625 168.2421875 C26.52239204 163.15156966 35.79471114 153.18602568 36.9375 144.8125 C37.5975 144.8125 38.2575 144.8125 38.9375 144.8125 C46.38016748 128.33230772 50.22322001 108.32985367 43.9375 90.8125 C43.65155915 89.08891212 43.40263059 87.35885011 43.1875 85.625 C41.78395824 76.73958599 38.83597454 68.30262279 35.9375 59.8125 C35.33228516 58.03939453 35.33228516 58.03939453 34.71484375 56.23046875 C26.26144202 32.99077788 11.12639961 9.81727786 -11.75 -1.125 C-36.90617708 -11.53197768 -59.89773346 -1.3016683 -78.0625 16.8125 Z " fill="#514B43" transform="translate(235.0625,213.1875)"/>
<path d="M0 0 C4.72935547 1.75090826 8.58536539 4.55707233 11 9 C11.92127403 14.11046351 11.77076979 18.52355964 8.875 22.9375 C5.86175701 26.51625358 2.75139082 28.55889526 -1.94921875 29.3125 C-7.07318801 29.62481813 -10.03887517 28.42097144 -14 25 C-17.42257501 21.03701841 -18.6136431 18.07663282 -18.3203125 12.953125 C-17.58242966 8.45383941 -15.77724143 5.701413 -12.4375 2.6875 C-8.32326508 -0.16081648 -4.94516874 -0.6438556 0 0 Z " fill="#4D4B45" transform="translate(244,136)"/>
<path d="M0 0 C6.56924952 -0.53456823 11.36010533 -0.68294834 16.66015625 3.515625 C20.09894686 7.32536386 20.3798096 10.87132138 20.25 15.8203125 C19.7436254 20.23526604 17.68149304 22.40161586 14.4375 25.25 C9.79281752 28.58464383 5.6214143 28.79199099 0 28 C-3.12578143 26.3279253 -5.39281175 24.2143765 -7 21 C-7.07092842 18.7927077 -7.08415025 16.58332548 -7.0625 14.375 C-7.05347656 13.18648437 -7.04445312 11.99796875 -7.03515625 10.7734375 C-7.02355469 9.85820312 -7.01195312 8.94296875 -7 8 C-6.01 7.67 -5.02 7.34 -4 7 C-3.34 8.32 -2.68 9.64 -2 11 C-0.68 11 0.64 11 2 11 C1.72965366 8.56282742 1.72965366 8.56282742 1 6 C0.01 5.34 -0.98 4.68 -2 4 C-1.34 2.68 -0.68 1.36 0 0 Z " fill="#494743" transform="translate(174,136)"/>
<path d="M0 0 C0.680625 -0.01417969 1.36125 -0.02835938 2.0625 -0.04296875 C4 0.1875 4 0.1875 7 2.1875 C7.46567389 5.34373415 7.68945964 7.17473518 7 10.1875 C2.21467922 15.85432723 -4.31998067 17.59159692 -11.515625 18.5078125 C-18.42777093 18.83385712 -25.28896195 17.16124572 -30.76953125 12.76953125 C-32.83751471 10.11069537 -32.23096608 7.42102507 -32 4.1875 C-31.67 3.1975 -31.34 2.2075 -31 1.1875 C-30.2886792 1.19273682 -29.5773584 1.19797363 -28.84448242 1.20336914 C-25.62549725 1.22414018 -22.40652617 1.23716058 -19.1875 1.25 C-18.06794922 1.25837891 -16.94839844 1.26675781 -15.79492188 1.27539062 C-14.72177734 1.27861328 -13.64863281 1.28183594 -12.54296875 1.28515625 C-11.55321045 1.29039307 -10.56345215 1.29562988 -9.54370117 1.30102539 C-6.22402614 1.15286828 -3.36475558 0.03186322 0 0 Z " fill="#474643" transform="translate(222,175.8125)"/>
<path d="M0 0 C0 0.99 0 1.98 0 3 C0.66 3 1.32 3 2 3 C2.99 6.63 3.98 10.26 5 14 C2.00920773 16.99079227 -0.10797848 18.44319139 -4 20 C-6.875 19.6875 -6.875 19.6875 -9 19 C-9 18.01 -9 17.02 -9 16 C-10.175625 15.9071875 -10.175625 15.9071875 -11.375 15.8125 C-14 15 -14 15 -15.375 12.8125 C-16.12589627 9.43346678 -16.00802014 7.31206618 -15 4 C-11.02678973 -0.26752214 -5.50931903 -0.1620388 0 0 Z " fill="#FBCD8B" transform="translate(174,165)"/>
<path d="M0 0 C0.98226562 0.00257813 1.96453125 0.00515625 2.9765625 0.0078125 C3.95367187 0.00523437 4.93078125 0.00265625 5.9375 0 C8.6015625 0.1328125 8.6015625 0.1328125 11.6015625 1.1328125 C11.6015625 1.7928125 11.6015625 2.4528125 11.6015625 3.1328125 C12.5915625 3.1328125 13.5815625 3.1328125 14.6015625 3.1328125 C15.01799425 6.53367178 15.18209641 9.12029881 13.44140625 12.15625 C11.11174917 15.0757691 9.63932851 16.91560566 5.9140625 17.6953125 C3.6015625 17.1328125 3.6015625 17.1328125 0.6015625 15.1328125 C0.6015625 14.4728125 0.6015625 13.8128125 0.6015625 13.1328125 C-0.3884375 13.1328125 -1.3784375 13.1328125 -2.3984375 13.1328125 C-2.3984375 10.8228125 -2.3984375 8.5128125 -2.3984375 6.1328125 C-3.3884375 6.4628125 -4.3784375 6.7928125 -5.3984375 7.1328125 C-3.17817505 0.17599015 -3.17817505 0.17599015 0 0 Z " fill="#FEC58B" transform="translate(247.3984375,166.8671875)"/>
<path d="M0 0 C0.04254356 1.99954746 0.04080783 4.00041636 0 6 C-3.62029151 9.62029151 -14.17656355 8.13591554 -19 8.1875 C-20.27875 8.20167969 -21.5575 8.21585937 -22.875 8.23046875 C-26 8 -26 8 -28 6 C-22.17251381 3.57188075 -16.2242509 3.38272093 -10 3 C-10 2.34 -10 1.68 -10 1 C-6.59437148 0.22157062 -3.49234244 -0.09978121 0 0 Z " fill="#3B551D" transform="translate(264,442)"/>
<path d="M0 0 C0.98226562 0.00257813 1.96453125 0.00515625 2.9765625 0.0078125 C3.95367187 0.00523437 4.93078125 0.00265625 5.9375 0 C8.6015625 0.1328125 8.6015625 0.1328125 11.6015625 1.1328125 C11.6015625 1.7928125 11.6015625 2.4528125 11.6015625 3.1328125 C12.5915625 3.1328125 13.5815625 3.1328125 14.6015625 3.1328125 C15.01799425 6.53367178 15.18209641 9.12029881 13.44140625 12.15625 C11.11174917 15.0757691 9.63932851 16.91560566 5.9140625 17.6953125 C3.6015625 17.1328125 3.6015625 17.1328125 0.6015625 15.1328125 C0.6015625 14.4728125 0.6015625 13.8128125 0.6015625 13.1328125 C3.58007812 12.83984375 3.58007812 12.83984375 6.55859375 12.546875 C8.90144392 12.20615859 8.90144392 12.20615859 11.6015625 10.1328125 C11.2715625 8.1528125 10.9415625 6.1728125 10.6015625 4.1328125 C7.3015625 3.4728125 4.0015625 2.8128125 0.6015625 2.1328125 C0.6015625 2.7928125 0.6015625 3.4528125 0.6015625 4.1328125 C-1.3784375 5.1228125 -3.3584375 6.1128125 -5.3984375 7.1328125 C-3.17817505 0.17599015 -3.17817505 0.17599015 0 0 Z " fill="#F9D78F" transform="translate(247.3984375,166.8671875)"/>
<path d="M0 0 C3.3 0 6.6 0 10 0 C10.32728047 3.60008519 10.40422813 5.41611492 8.3125 8.4375 C6 10 6 10 3.375 10 C1 9 1 9 -0.375 7.25 C-1.13838286 4.5018217 -0.75566986 2.72041151 0 0 Z " fill="#FEB886" transform="translate(163,170)"/>
<path d="M0 0 C-0.33 0.99 -0.66 1.98 -1 3 C0.32 3.99 1.64 4.98 3 6 C2.67 7.65 2.34 9.3 2 11 C-0.375 10.6875 -0.375 10.6875 -3 10 C-3.66 9.01 -4.32 8.02 -5 7 C-5.66 7 -6.32 7 -7 7 C-7 11.29 -7 15.58 -7 20 C-9.41834693 17.58165307 -9.40211575 16.71720073 -9.5625 13.375 C-9.4907816 7.89252656 -7.4324842 5.25686627 -3.7265625 1.3984375 C-2 0 -2 0 0 0 Z " fill="#706E58" transform="translate(174,137)"/>
<path d="M0 0 C0.33 1.98 0.66 3.96 1 6 C-2.3 6.66 -5.6 7.32 -9 8 C-10 3 -10 3 -9 1.1875 C-6.02507445 -0.57886204 -3.38199514 -0.19143369 0 0 Z " fill="#FEB586" transform="translate(257,171)"/>
<path d="M0 0 C0.33 0 0.66 0 1 0 C1.07516846 0.57218262 1.15033691 1.14436523 1.2277832 1.73388672 C1.58621761 4.44801812 1.9486851 7.16158447 2.3125 9.875 C2.44495117 10.86483887 2.57740234 11.85467773 2.71386719 12.87451172 C3.69388586 20.07015472 4.82389987 27.22676932 6.1730957 34.36279297 C6.81395551 37.9333574 7.03043177 40.53253044 6 44 C4.47677439 38.23680007 3.35410764 32.51262791 2.4375 26.625 C1.76176406 21.15313996 1.76176406 21.15313996 0 16 C-0.07181821 13.28239892 -0.09299506 10.59140612 -0.0625 7.875 C-0.05798828 7.12089844 -0.05347656 6.36679688 -0.04882812 5.58984375 C-0.03703499 3.72652873 -0.01909942 1.86325445 0 0 Z " fill="#9B9C6E" transform="translate(323,147)"/>
<path d="M0 0 C0.66 0.33 1.32 0.66 2 1 C-5.59 8.59 -13.18 16.18 -21 24 C-21 20.358661 -20.36183395 19.94908223 -17.9296875 17.3828125 C-17.28 16.69316406 -16.6303125 16.00351562 -15.9609375 15.29296875 C-14.92839844 14.21982422 -14.92839844 14.21982422 -13.875 13.125 C-12.87726563 12.06345703 -12.87726563 12.06345703 -11.859375 10.98046875 C-8.1022502 7.02443734 -4.27200873 3.39365179 0 0 Z " fill="#B1BE77" transform="translate(168,40)"/>
<path d="M0 0 C0.66 0 1.32 0 2 0 C2.6875 2.3125 2.6875 2.3125 3 5 C0.91655854 8.18643987 -2.54808231 9.61923292 -6 11 C-8.875 10.6875 -8.875 10.6875 -11 10 C-11 9.34 -11 8.68 -11 8 C-8.69 8 -6.38 8 -4 8 C-3.71125 7.4225 -3.4225 6.845 -3.125 6.25 C-1.5625 3.125 -1.5625 3.125 0 0 Z " fill="#F7DC90" transform="translate(176,174)"/>
<path d="M0 0 C0.66 0.33 1.32 0.66 2 1 C-3.94 6.94 -9.88 12.88 -16 19 C-16.66 18.67 -17.32 18.34 -18 18 C-12.37361021 11.50903494 -6.55902307 5.55113536 0 0 Z " fill="#676768" transform="translate(165,36)"/>
<path d="M0 0 C0 3.91378716 -1.04103804 5.90529457 -3.60400391 8.83105469 C-4.53092041 9.74226074 -4.53092041 9.74226074 -5.4765625 10.671875 C-6.48203125 11.66767578 -6.48203125 11.66767578 -7.5078125 12.68359375 C-8.20648438 13.36550781 -8.90515625 14.04742187 -9.625 14.75 C-10.33140625 15.44738281 -11.0378125 16.14476562 -11.765625 16.86328125 C-13.50598703 18.58012488 -15.25084981 20.29211832 -17 22 C-17.66 21.67 -18.32 21.34 -19 21 C-17.82244141 19.85724609 -17.82244141 19.85724609 -16.62109375 18.69140625 C-10.59052167 12.78367204 -4.93634655 6.88307477 0 0 Z " fill="#3C5122" transform="translate(345,383)"/>
<path d="M0 0 C0 0.99 0 1.98 0 3 C-0.74765625 3.03738281 -1.4953125 3.07476562 -2.265625 3.11328125 C-3.25046875 3.17902344 -4.2353125 3.24476563 -5.25 3.3125 C-6.22453125 3.37050781 -7.1990625 3.42851562 -8.203125 3.48828125 C-11.25341611 4.04636524 -12.70711276 4.96369776 -15 7 C-14.6875 5.125 -14.6875 5.125 -14 3 C-9.56270856 0.04180571 -5.24640913 -0.15430615 0 0 Z " fill="#F2DD8E" transform="translate(174,165)"/>
<path d="M0 0 C1.33386091 0.33121588 2.66707374 0.66504259 4 1 C5.73285648 1.07952806 7.46847386 1.10774143 9.203125 1.09765625 C10.1828125 1.09443359 11.1625 1.09121094 12.171875 1.08789062 C13.18765625 1.07951172 14.2034375 1.07113281 15.25 1.0625 C16.28125 1.05798828 17.3125 1.05347656 18.375 1.04882812 C20.91672573 1.03706088 23.45833319 1.02062011 26 1 C26 1.33 26 1.66 26 2 C20.00863713 2.78945017 14.04132644 3.12936141 8 3.1875 C6.72125 3.20167969 5.4425 3.21585937 4.125 3.23046875 C1 3 1 3 -1 1 C-0.67 0.67 -0.34 0.34 0 0 Z " fill="#3B472E" transform="translate(237,447)"/>
<path d="M0 0 C2.31 0.33 4.62 0.66 7 1 C6.49287967 4.71888239 5.88391785 7.73454239 4 11 C3.34 11 2.68 11 2 11 C2.66 7.7 3.32 4.4 4 1 C2.35 1.66 0.7 2.32 -1 3 C-0.67 2.01 -0.34 1.02 0 0 Z " fill="#838384" transform="translate(407,120)"/>
<path d="M0 0 C4.61513112 1.31860889 8.09897612 3.21355437 12 6 C11.01 7.485 11.01 7.485 10 9 C8.3278148 7.88321917 6.66237197 6.75633648 5 5.625 C3.6078125 4.68527344 3.6078125 4.68527344 2.1875 3.7265625 C1.465625 3.15679687 0.74375 2.58703125 0 2 C0 1.34 0 0.68 0 0 Z " fill="#3D4E28" transform="translate(269,30)"/>
<path d="M0 0 C1.65 0.33 3.3 0.66 5 1 C4.67 2.65 4.34 4.3 4 6 C2.35 5.67 0.7 5.34 -1 5 C-0.67 3.35 -0.34 1.7 0 0 Z " fill="#D9D8D8" transform="translate(172,142)"/>
<path d="M0 0 C1.98 0 3.96 0 6 0 C5.67 1.65 5.34 3.3 5 5 C3.35 4.67 1.7 4.34 0 4 C0 2.68 0 1.36 0 0 Z " fill="#DFDEDF" transform="translate(232,143)"/>
<path d="M0 0 C0.66 0.33 1.32 0.66 2 1 C1.67 1.66 1.34 2.32 1 3 C2.32 3.66 3.64 4.32 5 5 C3.35 5 1.7 5 0 5 C-0.33 6.32 -0.66 7.64 -1 9 C-1.33 8.01 -1.66 7.02 -2 6 C-2.66 6 -3.32 6 -4 6 C-2.84826645 3.53199953 -1.95216435 1.95216435 0 0 Z " fill="#747263" transform="translate(232,138)"/>
</svg>
